<svg width="300" height="300" viewBox="0 0 300 300" fill="none" xmlns="http://www.w3.org/2000/svg">
<g clip-path="url(#clip0_1055_33)">
<path d="M33.042 150C33.042 181.826 45.6848 212.349 68.1892 234.853C90.6935 257.358 121.216 270 153.042 270C184.868 270 215.39 257.358 237.895 234.853C260.399 212.349 273.042 181.826 273.042 150C273.042 118.174 260.399 87.6519 237.895 65.1476C215.39 42.6432 184.868 30.0004 153.042 30.0004C121.216 30.0004 90.6935 42.6432 68.1892 65.1476C45.6848 87.6519 33.042 118.174 33.042 150Z" fill="#466DA3" stroke="#DAEDF7" stroke-width="1.50648"/>
<path d="M26.9492 201.643C26.9492 214.538 32.0718 226.905 41.19 236.023C50.3082 245.141 62.6751 250.264 75.5702 250.264C88.4653 250.264 100.832 245.141 109.95 236.023C119.069 226.905 124.191 214.538 124.191 201.643C124.191 188.748 119.069 176.381 109.95 167.263C100.832 158.145 88.4653 153.022 75.5702 153.022C62.6751 153.022 50.3082 158.145 41.19 167.263C32.0718 176.381 26.9492 188.748 26.9492 201.643Z" fill="#FF6242"/>
<path d="M75.5737 167.3C87.2319 167.301 98.5016 171.491 107.33 179.105C116.158 186.72 121.957 197.252 123.67 208.784C124.692 201.873 124.213 194.822 122.265 188.113C120.318 181.404 116.947 175.193 112.382 169.903C107.818 164.614 102.167 160.37 95.8151 157.462C89.463 154.553 82.5586 153.047 75.5722 153.047C68.5857 153.047 61.6813 154.553 55.3292 157.462C48.9771 160.37 43.3264 164.614 38.762 169.903C34.1977 175.193 30.8268 181.404 28.879 188.113C26.9312 194.822 26.4522 201.873 27.4747 208.784C29.1873 197.252 34.9864 186.718 43.8152 179.104C52.644 171.489 63.9148 167.3 75.5737 167.3Z" fill="#FF866E"/>
<path d="M26.9492 201.643C26.9492 214.538 32.0718 226.905 41.19 236.023C50.3082 245.141 62.6751 250.264 75.5702 250.264C88.4653 250.264 100.832 245.141 109.95 236.023C119.069 226.905 124.191 214.538 124.191 201.643C124.191 188.748 119.069 176.381 109.95 167.263C100.832 158.145 88.4653 153.022 75.5702 153.022C62.6751 153.022 50.3082 158.145 41.19 167.263C32.0718 176.381 26.9492 188.748 26.9492 201.643V201.643Z" stroke="#45413C" stroke-width="1.50648" stroke-linecap="round" stroke-linejoin="round"/>
<path d="M58.8823 192.532C58.8823 193.982 59.4585 195.373 60.4842 196.399C61.5098 197.425 62.9009 198.001 64.3513 198.001C65.8018 198.001 67.1929 197.425 68.2185 196.399C69.2441 195.373 69.8203 193.982 69.8203 192.532C69.8203 191.081 69.2441 189.69 68.2185 188.665C67.1929 187.639 65.8018 187.063 64.3513 187.063C62.9009 187.063 61.5098 187.639 60.4842 188.665C59.4585 189.69 58.8823 191.081 58.8823 192.532Z" fill="#45413C"/>
<path d="M95.9102 192.532C95.9102 193.982 96.4863 195.373 97.512 196.399C98.5376 197.425 99.9287 198.001 101.379 198.001C102.83 198.001 104.221 197.425 105.246 196.399C106.272 195.373 106.848 193.982 106.848 192.532C106.848 191.081 106.272 189.69 105.246 188.665C104.221 187.639 102.83 187.063 101.379 187.063C99.9287 187.063 98.5376 187.639 97.512 188.665C96.4863 189.69 95.9102 191.081 95.9102 192.532Z" fill="#45413C"/>
<path d="M65.748 230.503C65.8076 226.003 67.6372 221.707 70.8407 218.546C74.0442 215.384 78.3638 213.612 82.8645 213.612C87.3653 213.612 91.6849 215.384 94.8884 218.546C98.0919 221.707 99.9215 226.003 99.981 230.503H65.748Z" fill="#FFA694" stroke="#45413C" stroke-width="1.50648" stroke-linecap="round" stroke-linejoin="round"/>
<path d="M170.703 192.202C170.703 205.097 175.826 217.464 184.944 226.582C194.062 235.7 206.429 240.823 219.324 240.823C232.219 240.823 244.586 235.7 253.704 226.582C262.823 217.464 267.945 205.097 267.945 192.202C267.945 179.306 262.823 166.94 253.704 157.821C244.586 148.703 232.219 143.581 219.324 143.581C206.429 143.581 194.062 148.703 184.944 157.821C175.826 166.94 170.703 179.306 170.703 192.202Z" fill="#FFE500"/>
<path d="M219.324 157.858C230.981 157.859 242.251 162.048 251.079 169.662C259.907 177.276 265.706 187.808 267.42 199.339C268.442 192.428 267.963 185.377 266.015 178.668C264.068 171.958 260.697 165.747 256.132 160.458C251.568 155.169 245.917 150.925 239.565 148.016C233.213 145.108 226.309 143.602 219.322 143.602C212.336 143.602 205.431 145.108 199.079 148.016C192.727 150.925 187.076 155.169 182.512 160.458C177.948 165.747 174.577 171.958 172.629 178.668C170.681 185.377 170.202 192.428 171.225 199.339C172.938 187.807 178.737 177.274 187.566 169.66C196.395 162.046 207.665 157.858 219.324 157.858Z" fill="#FFF48C"/>
<path d="M170.703 192.202C170.703 205.097 175.826 217.464 184.944 226.582C194.062 235.7 206.429 240.823 219.324 240.823C232.219 240.823 244.586 235.7 253.704 226.582C262.823 217.464 267.945 205.097 267.945 192.202C267.945 179.306 262.823 166.94 253.704 157.821C244.586 148.703 232.219 143.581 219.324 143.581C206.429 143.581 194.062 148.703 184.944 157.821C175.826 166.94 170.703 179.306 170.703 192.202V192.202Z" stroke="#45413C" stroke-width="1.50648" stroke-linecap="round" stroke-linejoin="round"/>
<path d="M225.075 183.089C225.075 184.539 225.651 185.93 226.677 186.956C227.702 187.981 229.093 188.558 230.544 188.558C231.994 188.558 233.385 187.981 234.411 186.956C235.437 185.93 236.013 184.539 236.013 183.089C236.013 181.638 235.437 180.247 234.411 179.221C233.385 178.196 231.994 177.62 230.544 177.62C229.093 177.62 227.702 178.196 226.677 179.221C225.651 180.247 225.075 181.638 225.075 183.089Z" fill="#45413C"/>
<path d="M188.047 183.089C188.047 183.807 188.189 184.518 188.464 185.181C188.739 185.845 189.141 186.448 189.649 186.956C190.157 187.464 190.76 187.866 191.423 188.141C192.087 188.416 192.798 188.558 193.516 188.558C194.235 188.558 194.946 188.416 195.609 188.141C196.273 187.866 196.876 187.464 197.384 186.956C197.891 186.448 198.294 185.845 198.569 185.181C198.844 184.518 198.985 183.807 198.985 183.089C198.985 182.37 198.844 181.659 198.569 180.996C198.294 180.332 197.891 179.729 197.384 179.221C196.876 178.714 196.273 178.311 195.609 178.036C194.946 177.761 194.235 177.62 193.516 177.62C192.798 177.62 192.087 177.761 191.423 178.036C190.76 178.311 190.157 178.714 189.649 179.221C189.141 179.729 188.739 180.332 188.464 180.996C188.189 181.659 188.047 182.37 188.047 183.089Z" fill="#45413C"/>
<path d="M229.146 203.943C229.176 206.21 228.755 208.461 227.908 210.564C227.062 212.667 225.806 214.58 224.213 216.194C222.621 217.808 220.724 219.089 218.632 219.963C216.541 220.838 214.296 221.288 212.029 221.288C209.762 221.288 207.518 220.838 205.426 219.963C203.334 219.089 201.437 217.808 199.845 216.194C198.253 214.58 196.997 212.667 196.15 210.564C195.303 208.461 194.883 206.21 194.913 203.943H229.146Z" fill="#FFA694" stroke="#45413C" stroke-width="1.50648" stroke-linecap="round" stroke-linejoin="round"/>
<path d="M118.751 126.471L99.1459 146.076C98.5095 146.712 97.6989 147.145 96.8167 147.32C95.9344 147.495 95.02 147.405 94.1889 147.061C93.3578 146.717 92.6473 146.134 92.1472 145.387C91.6471 144.639 91.3797 143.76 91.3789 142.86V126.471H71.0329C68.1296 126.471 65.3452 125.318 63.2922 123.265C61.2393 121.212 60.0859 118.428 60.0859 115.524V58.9505C60.0855 57.5126 60.3684 56.0888 60.9184 54.7603C61.4683 53.4318 62.2746 52.2247 63.2912 51.2078C64.3077 50.191 65.5147 49.3844 66.843 48.834C68.1714 48.2837 69.5951 48.0005 71.0329 48.0005H153.341C156.245 48.0013 159.029 49.1553 161.082 51.2087C163.135 53.2621 164.288 56.0469 164.288 58.9505V115.524C164.288 118.428 163.135 121.212 161.082 123.265C159.029 125.318 156.244 126.471 153.341 126.471H118.751Z" fill="white" stroke="#45413C" stroke-width="1.50648" stroke-linecap="round" stroke-linejoin="round"/>
<path d="M135.381 103.884C136.063 103.2 136.447 102.273 136.447 101.307C136.447 100.341 136.063 99.4138 135.381 98.7299L125.073 88.4219C124.903 88.253 124.768 88.0522 124.676 87.8311C124.585 87.61 124.537 87.3729 124.537 87.1334C124.537 86.894 124.585 86.6569 124.676 86.4357C124.768 86.2146 124.903 86.0138 125.073 85.8449L135.381 75.5369C136.063 74.853 136.447 73.9262 136.447 72.9599C136.447 71.9936 136.063 71.0668 135.381 70.3829L128.937 63.9389C128.253 63.2563 127.326 62.873 126.36 62.873C125.393 62.873 124.467 63.2563 123.783 63.9389L113.475 74.2469C113.306 74.4166 113.105 74.5513 112.884 74.6432C112.663 74.7351 112.426 74.7824 112.186 74.7824C111.947 74.7824 111.71 74.7351 111.488 74.6432C111.267 74.5513 111.067 74.4166 110.898 74.2469L100.59 63.9389C99.9057 63.2563 98.9789 62.873 98.0127 62.873C97.0464 62.873 96.1196 63.2563 95.4357 63.9389L88.9947 70.3829C88.3121 71.0668 87.9287 71.9936 87.9287 72.9599C87.9287 73.9262 88.3121 74.853 88.9947 75.5369L99.2967 85.8449C99.638 86.1869 99.8296 86.6503 99.8296 87.1334C99.8296 87.6165 99.638 88.0799 99.2967 88.4219L88.9947 98.7299C88.3121 99.4138 87.9287 100.341 87.9287 101.307C87.9287 102.273 88.3121 103.2 88.9947 103.884L95.4357 110.325C96.1196 111.007 97.0464 111.391 98.0127 111.391C98.9789 111.391 99.9057 111.007 100.59 110.325L110.898 100.017C111.24 99.6756 111.703 99.4839 112.186 99.4839C112.669 99.4839 113.133 99.6756 113.475 100.017L123.783 110.325C124.467 111.007 125.393 111.391 126.36 111.391C127.326 111.391 128.253 111.007 128.937 110.325L135.381 103.884Z" fill="#FF6242" stroke="#E04122" stroke-width="1.50648" stroke-linecap="round" stroke-linejoin="round"/>
<path d="M173.355 117.15L192.786 136.581C193.415 137.215 194.219 137.648 195.095 137.824C195.971 138 196.879 137.911 197.704 137.569C198.529 137.227 199.234 136.648 199.729 135.904C200.223 135.16 200.485 134.285 200.481 133.392V117.15H234.981C236.406 117.15 237.817 116.869 239.133 116.324C240.45 115.779 241.646 114.979 242.653 113.972C243.66 112.964 244.459 111.768 245.004 110.451C245.549 109.135 245.83 107.724 245.829 106.299V50.2321C245.83 48.8073 245.549 47.3963 245.004 46.0798C244.459 44.7633 243.66 43.5671 242.653 42.5595C241.646 41.5518 240.45 40.7525 239.133 40.2071C237.817 39.6618 236.406 39.3811 234.981 39.3811H153.402C150.524 39.3811 147.764 40.5243 145.729 42.5593C143.694 44.5942 142.551 47.3542 142.551 50.2321V106.299C142.551 109.177 143.694 111.937 145.729 113.972C147.764 116.007 150.524 117.15 153.402 117.15H173.355Z" fill="white" stroke="#45413C" stroke-width="1.50648" stroke-linecap="round" stroke-linejoin="round"/>
<path d="M222.972 68.3798C223.876 67.6339 224.448 66.5597 224.56 65.393C224.673 64.2263 224.317 63.0626 223.572 62.1578L218.658 56.1848C217.912 55.2806 216.838 54.7095 215.671 54.597C214.505 54.4845 213.341 54.8398 212.436 55.5848L184.281 78.7508L177.966 71.0708C177.221 70.1668 176.147 69.5957 174.981 69.4832C173.815 69.3707 172.652 69.7259 171.747 70.4708L165.774 75.3848C164.87 76.1306 164.299 77.2049 164.186 78.3716C164.074 79.5383 164.429 80.7019 165.174 81.6068L171.495 89.2868L179.217 98.6708C179.963 99.5748 181.036 100.146 182.203 100.258C183.369 100.371 184.532 100.016 185.436 99.2708L194.823 91.5488L222.972 68.3798Z" fill="#6DD627" stroke="#46B000" stroke-width="1.50648" stroke-linecap="round" stroke-linejoin="round"/>
<path d="M79.2856 272.143C160.714 327 303 272.143 294.493 161.684" stroke="#466DA3" stroke-width="5"/>
<path d="M282.838 107.452C282.82 108.724 285.225 109.427 293.087 110.488C301.409 111.604 303.203 111.468 302.794 109.893C302.212 107.729 282.91 105.408 282.838 107.452Z" fill="#466DA3"/>
<path d="M276.358 57.6244C273.298 56.8743 272.937 57.4581 271.363 65.6803C269.729 74.1681 269.682 75.8746 270.981 76.8278C273.339 78.5449 274.372 76.6692 276.828 66.4411C278.636 58.8926 278.616 58.178 276.358 57.6244Z" fill="#466DA3"/>
<path d="M293.736 76.8443C291.477 76.2661 290.678 76.6192 288.153 79.2648C280.695 87.1568 274.704 91.8769 279.098 92.8946C280.892 93.3249 282.439 92.0795 291.487 83.2978C296.465 78.4071 296.759 77.6421 293.736 76.8443Z" fill="#466DA3"/>
</g>
<defs>
<clipPath id="clip0_1055_33">
<rect width="300" height="300" fill="white"/>
</clipPath>
</defs>
</svg>
